<svg width="101" height="96" viewBox="0 0 101 96" xmlns="http://www.w3.org/2000/svg"><path d="M91.38 16.068v-3.816c0-.937-.302-1.675-.904-2.209-.603-.535-1.34-.803-2.21-.803-.87 0-1.74.3-2.61.904-.87.602-1.306 1.304-1.306 2.108v3.816h7.03zm-52.217 14.46l5.824 5.823c.804.94 1.841 1.408 3.113 1.408s2.377-.469 3.314-1.408L61.858 26.11c.803-.937 1.205-2.042 1.205-3.314 0-1.272-.435-2.342-1.306-3.212-.87-.87-1.941-1.305-3.213-1.305-1.273 0-2.378.401-3.314 1.203l-7.03 7.232-2.61-2.611c-.937-.937-2.042-1.406-3.314-1.406-1.272 0-2.343.469-3.213 1.406-.87.937-1.306 2.042-1.306 3.314 0 1.272.469 2.308 1.406 3.111zm27.112 31.13c0-1.339-.467-2.443-1.405-3.314s-2.008-1.306-3.214-1.306H38.762c-1.206 0-2.277.435-3.214 1.306-.937.87-1.406 1.94-1.406 3.212 0 1.272.469 2.377 1.406 3.314.937.938 2.008 1.406 3.214 1.406h22.894c1.206 0 2.276-.468 3.214-1.406.938-.937 1.405-2.008 1.405-3.212zm0-13.657c0-1.206-.467-2.276-1.405-3.214-.938-.938-2.008-1.406-3.214-1.406H38.762c-1.206 0-2.277.468-3.214 1.406-.937.938-1.406 2.008-1.406 3.214 0 1.204.469 2.275 1.406 3.212.937.938 2.008 1.406 3.214 1.406h22.894c1.206 0 2.276-.468 3.214-1.406.938-.937 1.405-2.008 1.405-3.212zm9.037 31.53V12.252c0-1.07.134-2.076.403-3.012H32.937c-1.874.402-3.48 1.071-4.82 2.008-2.008 1.34-3.012 3.147-3.012 5.423v58.643h32.133c1.206 0 2.277.467 3.214 1.406.937.937 1.406 2.008 1.406 3.213 0 2.007.701 3.649 2.109 4.92 1.405 1.271 3.079 1.909 5.02 1.909 1.94 0 3.48-.67 4.618-2.009 1.138-1.339 1.707-3.08 1.707-5.222zm-58.843 7.23h37.958a9.293 9.293 0 0 1-1.205-2.612H10.845c1.34 1.742 3.214 2.613 5.624 2.613zM89.17.203c3.214.267 5.891 1.54 8.034 3.815 2.142 2.277 3.213 5.022 3.213 8.235v8.436c0 1.205-.435 2.242-1.305 3.113-.87.87-1.975 1.304-3.314 1.304H84.35V79.53c0 4.553-1.44 8.436-4.318 11.648C77.153 94.392 73.506 96 69.088 96h-52.62c-4.552 0-8.435-1.54-11.648-4.62C1.607 88.302 0 84.486 0 79.934c0-1.205.435-2.276 1.305-3.213.872-.939 1.975-1.406 3.314-1.406h11.247V16.67c0-4.017 1.406-7.532 4.218-10.544C22.895 3.114 26.71 1.139 31.53.202L32.335 0h56.032c.268 0 .535.068.803.202z" fill="#FFF" fill-rule="evenodd"/></svg>
