<svg width="101" height="96" viewBox="0 0 101 96" xmlns="http://www.w3.org/2000/svg"><path d="M91.13 32.894c0-.672-.235-1.243-.705-1.713a2.333 2.333 0 0 0-1.714-.706h-28.63v14.517h31.05V32.894zm-7.056 48.792V54.468H57.662v31.856h21.573c1.344 0 2.487-.437 3.428-1.31.94-.875 1.411-1.983 1.411-3.328zm-67.34 0c0 1.345.47 2.453 1.412 3.327.94.874 2.083 1.31 3.427 1.31h21.574V54.469H16.734v27.218zM9.678 32.894v12.098h31.048V30.475H12.097c-.672 0-1.243.235-1.714.706a2.333 2.333 0 0 0-.705 1.713zM88.71 21c3.36 0 6.217 1.176 8.57 3.528 2.351 2.352 3.527 5.142 3.527 8.367V49.83c0 1.21-.47 2.286-1.41 3.226-.942.941-2.084 1.412-3.428 1.412h-2.42v27.218c0 3.897-1.411 7.257-4.234 10.08C86.493 94.589 83.133 96 79.236 96H21.572c-3.898 0-7.258-1.411-10.08-4.234-2.823-2.823-4.235-6.183-4.235-10.08V54.468h-2.42c-1.343 0-2.486-.47-3.427-1.412C.471 52.116 0 51.04 0 49.83V32.894c0-3.225 1.176-6.015 3.528-8.367C5.881 22.175 8.737 21 12.098 21h21.17l-5.041-3.024c-1.479-.805-2.285-2.05-2.42-3.729-.134-1.682.404-3.058 1.613-4.133L38.306 1.04c1.211-.941 2.59-1.243 4.135-.907 1.546.336 2.655 1.243 3.327 2.72l4.637 10.486L55.04 2.853c.672-1.477 1.78-2.384 3.326-2.72 1.546-.336 2.924-.034 4.134.907l10.887 9.073c1.21 1.075 1.748 2.451 1.613 4.133-.134 1.679-.94 2.924-2.42 3.729l-5.04 3.024h21.17z" fill="#FFF" fill-rule="evenodd"/></svg>
